# xmcd CD database file
#
# Track frame offsets:
#	150
#	27037
#	41737
#	58485
#	64562
#	83900
#	87637
#	116950
#	125675
#	144570
#	164195
#	184375
#	202087
#	224650
#	247837
#
# Disc length: 3651 seconds
#
# Revision: 0
# Processed by: cddbd v1.4PL0 Copyright (c) Steve Scherf et al.
# Submitted via: Feurio! 1.65 - http://www.feurio.com
#
DISCID=f40e410f
DTITLE=Doug MacLeod Band - 54th and Vermont
DYEAR=1989
DGENRE=Blues
TTITLE0=Sure Is Cold
TTITLE1=Doo La
TTITLE2=Horse With No Rider
TTITLE3=Rap For 54th and Vermont
TTITLE4=54th and Vermont
TTITLE5=Rap For Roll Like A River
TTITLE6=Roll Like A River
TTITLE7=Rap For Old Countrx Road
TTITLE8=Old Country Road
TTITLE9=Hey Bartender
TTITLE10=Bus With No Destination
TTITLE11=Raylene
TTITLE12=Mississippi Highway
TTITLE13=Patti Joe
TTITLE14=Heaven's the Only Place
EXTD=ARD Line Records STCD 9.00817 1989
EXTT0=
EXTT1=
EXTT2=
EXTT3=
EXTT4=
EXTT5=
EXTT6=
EXTT7=
EXTT8=
EXTT9=
EXTT10=
EXTT11=
EXTT12=
EXTT13=
EXTT14=
PLAYORDER=
